<?xml version="1.0" encoding="UTF-8"?>
<svg width="93px" height="93px" viewBox="0 0 93 93" version="1.1" xmlns="http://www.w3.org/2000/svg" xmlns:xlink="http://www.w3.org/1999/xlink">
    <!-- Generator: Sketch 43.2 (39069) - http://www.bohemiancoding.com/sketch -->
    <title>Facebook_Color</title>
    <desc>Created with Sketch.</desc>
    <defs></defs>
    <g id="Page-1" stroke="none" stroke-width="1" fill="none" fill-rule="evenodd">
        <g id="ds-landing" transform="translate(-196.000000, -6317.000000)">
            <g id="Group-9" transform="translate(0.000000, 6128.872161)">
                <g id="Facebook" transform="translate(196.000000, 188.361584)">
                    <path d="M0,46.0800018 C0,20.6307183 20.6307183,0 46.0800018,0 C71.5292854,0 92.1600037,20.6307183 92.1600037,46.0800018 C92.1600037,71.5292854 71.5292854,92.1600037 46.0800018,92.1600037 C20.6307183,92.1600037 0,71.5292854 0,46.0800018 Z" id="back" fill="#3B5998"></path>
                    <path d="M49.3469877,71.6380381 L49.3469877,46.5680843 L56.2673914,46.5680843 L57.1844943,37.9288394 L49.3469877,37.9288394 L49.3587455,33.6048141 C49.3587455,31.351566 49.5728341,30.1442242 52.8091492,30.1442242 L57.1355038,30.1442242 L57.1355038,21.5040009 L50.2141203,21.5040009 C41.9004256,21.5040009 38.9742207,25.6949641 38.9742207,32.7428464 L38.9742207,37.9298178 L33.7920013,37.9298178 L33.7920013,46.5690627 L38.9742207,46.5690627 L38.9742207,71.6380381 L49.3469877,71.6380381 Z" id="Shape" fill="#FFFFFF"></path>
                </g>
            </g>
        </g>
    </g>
</svg>