<?xml version="1.0" encoding="UTF-8"?>
<svg width="93px" height="93px" viewBox="0 0 93 93" version="1.1" xmlns="http://www.w3.org/2000/svg" xmlns:xlink="http://www.w3.org/1999/xlink">
    <!-- Generator: Sketch 43.2 (39069) - http://www.bohemiancoding.com/sketch -->
    <title>Medium_Color</title>
    <desc>Created with Sketch.</desc>
    <defs></defs>
    <g id="Page-1" stroke="none" stroke-width="1" fill="none" fill-rule="evenodd">
        <g id="ds-landing" transform="translate(-472.000000, -6317.000000)">
            <g id="Group-9" transform="translate(0.000000, 6128.872161)">
                <g id="Medium" transform="translate(472.480011, 188.361584)">
                    <path d="M0,46.0800018 C0,20.6307183 20.6307183,0 46.0800018,0 C71.5292854,0 92.1600037,20.6307183 92.1600037,46.0800018 C92.1600037,71.5292854 71.5292854,92.1600037 46.0800018,92.1600037 C20.6307183,92.1600037 0,71.5292854 0,46.0800018 Z" id="back" fill="#FFFFFF"></path>
                    <g id="Group" transform="translate(23.040001, 26.112001)">
                        <path d="M31.1452897,0.0454850755 C30.9113256,-0.072340295 30.7200012,0.0467623153 30.7200012,0.310193022 L30.7200012,32.7067416 L44.8041363,39.7995735 C45.5058703,40.1530496 46.0800018,39.7955821 46.0800018,39.00529 L46.0800018,7.82020333 C46.0800018,7.66485904 45.9928201,7.52276611 45.8549144,7.4533162 L31.1452897,0.0454850755" id="Fill-6" fill="#32FC8D"></path>
                        <path d="M15.3600006,24.6288051 L30.5432524,0.242745614 C30.6810228,0.0215693602 30.9860289,-0.0643824083 31.2211146,0.051794158 L45.8875284,7.29976362 C46.0702135,7.38996575 46.1353558,7.61570721 46.0283249,7.78761074 L30.7936282,32.2560013 L15.3600006,24.6288051" id="Fill-7" fill="#0BE370"></path>
                        <path d="M0.997038633,0.210184202 C0.0386366652,-0.261355096 -0.286080247,0.0876255295 0.275517653,0.98580323 L14.9873045,24.5140323 L30.7200012,32.2560013 L15.0889408,7.25738775 C15.0225362,7.15096783 14.9270695,7.06516078 14.8137433,7.0092344 L0.997038633,0.210184202" id="Fill-9" fill="#14C767"></path>
                        <path d="M15.3600006,39.0013432 C15.3600006,39.7949867 14.7857165,40.15397 14.0839897,39.798995 L0.850726747,33.1062557 C0.38280326,32.8696056 0,32.2431885 0,31.7140928 L0,0.623149957 C0,0.0940543102 0.38280326,-0.145321387 0.850726747,0.091328666 L15.1705804,7.33368608 C15.2866102,7.39236759 15.3600006,7.51229594 15.3600006,7.64360786 L15.3600006,39.0013432" id="Fill-10" fill="#00AB6C"></path>
                    </g>
                </g>
            </g>
        </g>
    </g>
</svg>