<?xml version="1.0" encoding="UTF-8"?>
<svg width="25px" height="22px" viewBox="0 0 25 22" version="1.1" xmlns="http://www.w3.org/2000/svg" xmlns:xlink="http://www.w3.org/1999/xlink">
    <!-- Generator: Sketch 43.2 (39069) - http://www.bohemiancoding.com/sketch -->
    <title>medium</title>
    <desc>Created with Sketch.</desc>
    <defs></defs>
    <g id="Page-1" stroke="none" stroke-width="1" fill="none" fill-rule="evenodd">
        <g id="ds-landing" transform="translate(-1264.000000, -26.000000)" fill="#FFFFFF">
            <g id="Group-6" transform="translate(1160.000000, 26.000000)">
                <g id="medium" transform="translate(104.179843, 0.333398)">
                    <path d="M16.5231667,17.063772 L16.4383474,17.2 L16,16.9833716 L16,17.0347606 L23.3354867,20.7289437 C23.7009732,20.9130458 24,20.7268649 24,20.3152544 L24,5.05525746 L16.6187898,16.9101921 L16.8,17.2 L16.5231667,17.063772 Z M23.9991044,4.05338286 C23.9924185,3.98029518 23.9487355,3.91515742 23.8827669,3.88193536 L16.2215044,0.0236901426 C16.0996481,-0.0376772355 16,0.0243553716 16,0.161558859 L16,1.02102265 L16.3079433,0.526430002 C16.3796987,0.411234041 16.5385561,0.366467497 16.6609965,0.426976123 L23.9991044,4.05338286 Z" id="Combined-Shape"></path>
                    <path d="M8.12137313,12.6325628 L8.20588742,12.7677246 L16.1231667,16.663772 L16.0383474,16.8 L8,12.8275021 L8.12137313,12.6325628 Z M10.9517459,8.08665655 L15.9079433,0.126430002 C15.9796987,0.0112340413 16.1385561,-0.033532503 16.2609965,0.0269761229 L23.8997534,3.80196007 C23.9949019,3.84894034 24.0288302,3.96651401 23.9730849,4.0560471 L16.2187898,16.5101921 L10.9517459,8.08665655 Z" id="Combined-Shape"></path>
                    <path d="M0.0101884763,0.225256262 C-0.0293487201,0.0586131202 0.047245744,-0.0214430301 0.221483071,0.00494466937 C0.115211723,0.0246781115 0.0370696036,0.102711208 0.0101884763,0.225256262 Z M8.4,4.64538871 L16,16.8 L8.4,13.060084 L8.4,4.64538871 Z" id="Combined-Shape"></path>
                    <path d="M8,20.3131988 C8,20.7265547 7.70089369,20.9135252 7.33541103,20.7286424 L0.44308683,17.2428408 C0.19937669,17.1195856 0,16.7933267 0,16.517756 L0,0.324557256 C0,0.048986618 0.19937669,-0.0756882194 0.44308683,0.0475670116 L7.90134363,3.81962801 C7.96177581,3.8501913 8,3.91265398 8,3.9810456 L8,20.3131988" id="Fill-10"></path>
                </g>
            </g>
        </g>
    </g>
</svg>