<?xml version="1.0" encoding="UTF-8"?>
<svg width="66px" height="73px" viewBox="0 0 66 73" version="1.1" xmlns="http://www.w3.org/2000/svg" xmlns:xlink="http://www.w3.org/1999/xlink">
    <!-- Generator: Sketch 43.2 (39069) - http://www.bohemiancoding.com/sketch -->
    <title>moderators-icon</title>
    <desc>Created with Sketch.</desc>
    <defs>
        <polygon id="path-1" points="8.3125 0.353186515 17.21875 0.353186515 17.21875 20.8836207 8.3125 17.1982759"></polygon>
        <polygon id="path-2" points="0 0.353186515 8.90625 0.353186515 8.90625 20.8836207 0 17.1982759"></polygon>
    </defs>
    <g id="Page-1" stroke="none" stroke-width="1" fill="none" fill-rule="evenodd">
        <g id="ds-landing" transform="translate(-1058.000000, -3301.000000)">
            <g id="moderators-icon" transform="translate(1059.500000, 3302.588077)">
                <circle id="Oval-6-Copy" stroke="#297FCA" stroke-width="3" cx="31.7516685" cy="31.7697888" r="31"></circle>
                <g id="Group-21-Copy" transform="translate(10.251669, 9.803399)" stroke="#297FCA" stroke-width="3">
                    <circle id="Oval-4-Copy-8" cx="21.4839107" cy="13.1010163" r="12.5649311"></circle>
                    <path d="M31.2195446,58.5990538 C34.2111385,55.5147611 36.0527499,51.3087079 36.0527499,46.6725234 C36.0527499,37.2109741 28.3826488,29.540873 18.9210995,29.540873 C14.147426,29.540873 9.82977382,31.4933323 6.72314686,34.6432471" id="Oval-4-Copy-9" stroke-linecap="round" transform="translate(21.387948, 44.069963) rotate(-45.000000) translate(-21.387948, -44.069963) "></path>
                </g>
                <g id="Group-23" transform="translate(23.251669, 49.707289)">
                    <g id="Group-24" transform="translate(0.144751, 0.387736)">
                        <g id="Rectangle-11" transform="translate(12.765625, 10.618404) scale(-1, 1) translate(-12.765625, -10.618404) ">
                            <use fill="#FFFFFF" fill-rule="evenodd" xlink:href="#path-1"></use>
                            <path stroke="#297FCA" stroke-width="1.84267241" d="M9.23383621,1.27452272 L16.2974138,1.27452272 L16.2974138,19.5052792 L9.23383621,16.5824195 L9.23383621,1.27452272 Z"></path>
                        </g>
                        <g id="Rectangle-11">
                            <use fill="#FFFFFF" fill-rule="evenodd" xlink:href="#path-2"></use>
                            <path stroke="#297FCA" stroke-width="1.84267241" d="M0.921336207,1.27452272 L7.98491379,1.27452272 L7.98491379,19.5052792 L0.921336207,16.5824195 L0.921336207,1.27452272 Z"></path>
                        </g>
                        <path d="M1.5,1.85318651 L16.3125,1.85318651 L16.3125,16.1956185 L8.90625,19.2602736 L1.5,16.1956185 L1.5,1.85318651 Z" id="Rectangle-11" stroke="#297FCA" stroke-width="3"></path>
                    </g>
                </g>
            </g>
        </g>
    </g>
</svg>