<?xml version="1.0" encoding="UTF-8"?>
<svg width="24px" height="21px" viewBox="0 0 24 21" version="1.1" xmlns="http://www.w3.org/2000/svg" xmlns:xlink="http://www.w3.org/1999/xlink">
    <!-- Generator: Sketch 43.2 (39069) - http://www.bohemiancoding.com/sketch -->
    <title>twitter</title>
    <desc>Created with Sketch.</desc>
    <defs></defs>
    <g id="Page-1" stroke="none" stroke-width="1" fill="none" fill-rule="evenodd">
        <g id="ds-landing" transform="translate(-1205.000000, -27.000000)" fill="#FFFFFF">
            <g id="Group-6" transform="translate(1160.000000, 26.000000)">
                <path d="M56.5962904,7.04089906 L56.6466529,7.87135321 L55.8072777,7.76966495 C52.751952,7.37985994 50.0827389,6.05791252 47.8164258,3.83771879 L46.7084506,2.73609594 L46.423063,3.54960205 C45.8187129,5.36304273 46.2048255,7.27817168 47.4638883,8.566223 C48.1353884,9.27804084 47.9843009,9.3797291 46.8259631,8.95602801 C46.423063,8.82044366 46.0705254,8.7187554 46.0369504,8.76959953 C45.9194379,8.88823584 46.322338,10.4305078 46.6413006,11.0406374 C47.0777757,11.8880396 47.9675134,12.7184937 48.9411886,13.209987 L49.7637763,13.599792 L48.7901011,13.61674 C47.8500009,13.61674 47.8164258,13.6336881 47.9171509,13.989597 C48.252901,15.0912199 49.5791138,16.2606349 51.0564141,16.7690762 L52.0972393,17.1249851 L51.1907141,17.6673225 C49.8477138,18.4469325 48.2696885,18.8875817 46.6916631,18.9214778 C45.9362254,18.9384258 45.3150878,19.006218 45.3150878,19.0570621 C45.3150878,19.2265425 47.3631632,20.175633 48.555076,20.54849 C52.1308144,21.6501128 56.3780528,21.1755676 59.5676786,19.2943347 C61.8339916,17.9554393 64.1003046,15.2945964 65.1579174,12.7184937 C65.7286925,11.3457022 66.2994676,8.8373917 66.2994676,7.6340806 C66.2994676,6.85447058 66.3498302,6.75278232 67.2899304,5.82063991 C67.843918,5.27830251 68.3643306,4.68512098 68.4650557,4.51564054 C68.6329307,4.19362771 68.6161432,4.19362771 67.7599805,4.48174445 C66.3330427,4.99018577 66.1315926,4.92239359 66.8366678,4.15973162 C67.3570804,3.61739422 67.978218,2.63440768 67.978218,2.34629094 C67.978218,2.29544681 67.7264055,2.38018703 67.4410179,2.53271942 C67.1388428,2.70219986 66.4673427,2.95642051 65.9637176,3.10895291 L65.0571924,3.39706965 L64.2346047,2.83778421 C63.7813421,2.53271942 63.1434169,2.19375854 62.8076668,2.09207028 C61.9515041,1.85479767 60.6420788,1.88869376 59.8698537,2.15986246 C57.7714157,2.92252443 56.4452029,4.8884975 56.5962904,7.04089906 Z" id="twitter"></path>
            </g>
        </g>
    </g>
</svg>