<?xml version="1.0" encoding="UTF-8"?>
<svg width="93px" height="93px" viewBox="0 0 93 93" version="1.1" xmlns="http://www.w3.org/2000/svg" xmlns:xlink="http://www.w3.org/1999/xlink">
    <!-- Generator: Sketch 43.2 (39069) - http://www.bohemiancoding.com/sketch -->
    <title>Twitter_Color</title>
    <desc>Created with Sketch.</desc>
    <defs></defs>
    <g id="Page-1" stroke="none" stroke-width="1" fill="none" fill-rule="evenodd">
        <g id="ds-landing" transform="translate(-334.000000, -6318.000000)">
            <g id="Group-9" transform="translate(0.000000, 6128.872161)">
                <g id="Twitter" transform="translate(334.240005, 189.897584)">
                    <path d="M0,46.0800018 C0,20.6307183 20.6307183,0 46.0800018,0 C71.5292854,0 92.1600037,20.6307183 92.1600037,46.0800018 C92.1600037,71.5292854 71.5292854,92.1600037 46.0800018,92.1600037 C20.6307183,92.1600037 0,71.5292854 0,46.0800018 Z" id="back" fill="#55ACEE"></path>
                    <path d="M44.6999108,37.4544027 L44.7966068,39.0488747 L43.1850064,38.8536332 C37.3187808,38.1052076 32.1938914,35.5670685 27.8425702,31.3042963 L25.7152576,29.1891804 L25.1673135,30.7511122 C24.0069612,34.2329184 24.7482974,37.9099661 27.165698,40.3830248 C28.4549784,41.7497151 28.1648903,41.9449565 25.9408817,41.1314504 C25.1673135,40.8711285 24.4904413,40.675887 24.4259773,40.7735077 C24.2003532,41.0012894 24.9739214,43.9624518 25.5863296,45.1339006 C26.4243618,46.7609129 28.1326583,48.3553849 30.0021148,49.299052 L31.5814832,50.0474776 L29.7120267,50.0800179 C27.9070342,50.0800179 27.8425702,50.1125581 28.0359623,50.7959033 C28.6806025,52.9110192 31.2269311,55.1562962 34.0633479,56.1325035 L36.0617325,56.8158487 L34.321204,57.8571365 C31.7426433,59.3539878 28.7128345,60.2000342 25.6830256,60.2651147 C24.2325852,60.2976549 23.0400009,60.4278159 23.0400009,60.5254366 C23.0400009,60.8508391 26.972306,62.6730928 29.2607786,63.3889782 C36.1261965,65.5040942 44.2808947,64.5929673 50.4049764,60.9810001 C54.7562976,58.4103207 59.1076187,53.3015022 61.1382353,48.3553849 C62.2341236,45.719625 63.3300119,40.9036687 63.3300119,38.5933113 C63.3300119,37.09646 63.4267079,36.9012185 65.2317004,35.111505 C66.2953567,34.0702172 67.294549,32.9313086 67.487941,32.6059061 C67.8102611,31.9876415 67.7780291,31.9876415 66.1341967,32.5408256 C63.3944759,33.517033 63.0076918,33.386872 64.3614362,31.922561 C65.3606284,30.8812731 66.5532128,28.9939389 66.5532128,28.4407547 C66.5532128,28.343134 66.0697326,28.5058352 65.5217885,28.7986974 C64.9416123,29.1240999 63.652332,29.6122036 62.6853717,29.9050658 L60.9448432,30.4582499 L59.3654748,29.3844218 C58.4952106,28.7986974 57.2703942,28.1478925 56.6257541,27.9526511 C54.9819216,27.4970876 52.4678249,27.5621681 50.9851525,28.082812 C46.9561514,29.5471231 44.4098227,33.3217915 44.6999108,37.4544027 Z" id="Shape" fill="#FFFFFF"></path>
                </g>
            </g>
        </g>
    </g>
</svg>