<?xml version="1.0" encoding="UTF-8"?>
<svg width="82px" height="62px" viewBox="0 0 82 62" version="1.1" xmlns="http://www.w3.org/2000/svg" xmlns:xlink="http://www.w3.org/1999/xlink">
    <!-- Generator: Sketch 43.2 (39069) - http://www.bohemiancoding.com/sketch -->
    <title>vidoes-icon</title>
    <desc>Created with Sketch.</desc>
    <defs></defs>
    <g id="Page-1" stroke="none" stroke-width="1" fill="none" fill-rule="evenodd">
        <g id="ds-landing" transform="translate(-679.000000, -2982.000000)" stroke="#297FCA" stroke-width="3">
            <g id="vidoes-icon" transform="translate(679.500000, 2982.000000)">
                <path d="M1.5,6.61746339 C1.5,6.25338572 1.85241436,5.81047793 2.18421856,5.73883178 C2.33367202,5.70211319 2.54363837,5.65207938 2.86124193,5.58071141 C3.39840705,5.46000627 4.03865886,5.32501744 4.7797171,5.17927084 C6.90674306,4.76094099 9.40969667,4.34187136 12.27034,3.95025775 C20.4612253,2.82894978 29.8645874,2.15561404 40.3346975,2.15561404 C50.8048076,2.15561404 60.2081697,2.82894978 68.399055,3.95025775 C71.2596983,4.34187136 73.7626519,4.76094099 75.8896779,5.17927084 C76.6307361,5.32501744 77.2709879,5.46000627 77.8081531,5.58071141 C78.1257566,5.65207938 78.335723,5.70211319 78.4357717,5.72728604 C78.8178095,5.81304036 79.169395,6.25485323 79.169395,6.61746339 L79.169395,55.1958109 C79.169395,55.5555664 78.8194442,55.9922655 78.4901647,56.0614929 C78.3398326,56.097188 78.1201897,56.1477398 77.7899579,56.2196628 C77.2325454,56.3410648 76.5708736,56.4767659 75.8081158,56.623229 C73.6202591,57.0433365 71.0660312,57.4640768 68.1708239,57.857169 C59.8846618,58.9822096 50.5382513,59.6576603 40.3346975,59.6576603 C30.1311436,59.6576603 20.7847331,58.9822096 12.498571,57.857169 C9.60336377,57.4640768 7.04913594,57.0433365 4.86127917,56.623229 C4.09852144,56.4767659 3.43684963,56.3410648 2.87943709,56.2196628 C2.54920533,56.1477398 2.32956243,56.097188 2.22368121,56.0715457 C1.84823473,55.9897643 1.5,55.5549571 1.5,55.1958109 L1.5,6.61746339 Z" id="Rectangle-7"></path>
                <polygon id="Path-3" points="31.0643303 20.1425172 31.0643303 41.6707571 49.6050646 30.9066372"></polygon>
            </g>
        </g>
    </g>
</svg>