<?xml version="1.0" encoding="UTF-8"?>
<svg width="27px" height="20px" viewBox="0 0 27 20" version="1.1" xmlns="http://www.w3.org/2000/svg" xmlns:xlink="http://www.w3.org/1999/xlink">
    <!-- Generator: Sketch 43.2 (39069) - http://www.bohemiancoding.com/sketch -->
    <title>youtube</title>
    <desc>Created with Sketch.</desc>
    <defs></defs>
    <g id="Page-1" stroke="none" stroke-width="1" fill="none" fill-rule="evenodd">
        <g id="ds-landing" transform="translate(-1323.000000, -28.000000)" fill="#FFFFFF">
            <g id="Group-6" transform="translate(1160.000000, 26.000000)">
                <path d="M189.155072,6.70247472 C189.155072,6.70247472 189.411072,8.81986043 189.411072,10.9364286 L189.411072,12.9213755 C189.411072,15.0387612 189.155072,17.1553294 189.155072,17.1553294 C189.155072,17.1553294 188.904672,18.9579686 188.137472,19.7517838 C187.163872,20.7941262 186.072672,20.7990314 185.572672,20.8603456 C181.990272,21.1252232 176.611072,21.1333984 176.611072,21.1333984 C176.611072,21.1333984 169.955072,21.0712667 167.907072,20.8701559 C167.337472,20.7614253 166.058272,20.7941262 165.083872,19.7517838 C164.316672,18.9579686 164.067072,17.1553294 164.067072,17.1553294 C164.067072,17.1553294 163.811072,15.0387612 163.811072,12.9213755 L163.811072,10.9364286 C163.811072,8.81986043 164.067072,6.70247472 164.067072,6.70247472 C164.067072,6.70247472 164.316672,4.89983555 165.083872,4.10602029 C166.058272,3.06367791 167.148672,3.05877277 167.649472,2.99827603 C171.231872,2.73339844 176.605472,2.73339844 176.605472,2.73339844 L176.616672,2.73339844 C176.616672,2.73339844 181.990272,2.73339844 185.572672,2.99827603 C186.072672,3.05877277 187.163872,3.06367791 188.137472,4.10602029 C188.904672,4.89983555 189.155072,6.70247472 189.155072,6.70247472 Z M173.967872,15.3265295 L180.883872,11.6640245 L173.967072,7.97617624 L173.967872,15.3265295 Z" id="youtube"></path>
            </g>
        </g>
    </g>
</svg>