<?xml version="1.0" encoding="UTF-8"?>
<svg width="93px" height="93px" viewBox="0 0 93 93" version="1.1" xmlns="http://www.w3.org/2000/svg" xmlns:xlink="http://www.w3.org/1999/xlink">
    <!-- Generator: Sketch 43.2 (39069) - http://www.bohemiancoding.com/sketch -->
    <title>Youtube Copy_Color</title>
    <desc>Created with Sketch.</desc>
    <defs></defs>
    <g id="Page-1" stroke="none" stroke-width="1" fill="none" fill-rule="evenodd">
        <g id="ds-landing" transform="translate(-610.000000, -6318.000000)">
            <g id="Group-9" transform="translate(0.000000, 6128.872161)">
                <g id="Youtube-Copy" transform="translate(610.720016, 189.897584)">
                    <path d="M0,46.0800018 C0,20.6307183 20.6605315,0 46.1465914,0 C71.6326514,0 92.2931829,20.6307183 92.2931829,46.0800018 C92.2931829,71.5292854 71.6326514,92.1600037 46.1465914,92.1600037 C20.6605315,92.1600037 0,71.5292854 0,46.0800018 Z" id="back" fill="#CE1312"></path>
                    <path d="M70.1644828,36.8046279 C70.1644828,36.8046279 69.6837148,33.3435606 68.2106907,31.8194352 C66.3413786,29.8181378 64.2462746,29.8087199 63.2862745,29.6925662 C56.4080662,29.1840012 46.0907538,29.1840012 46.0907538,29.1840012 L46.0692498,29.1840012 C46.0692498,29.1840012 35.7519374,29.1840012 28.8737291,29.6925662 C27.9121931,29.8087199 25.818625,29.8181378 23.947777,31.8194352 C22.4747529,33.3435606 21.9955209,36.8046279 21.9955209,36.8046279 C21.9955209,36.8046279 21.5040009,40.8700086 21.5040009,44.9338197 L21.5040009,48.7449179 C21.5040009,52.8102986 21.9955209,56.8741097 21.9955209,56.8741097 C21.9955209,56.8741097 22.4747529,60.3351771 23.947777,61.8593024 C25.818625,63.8605999 28.2746891,63.7978141 29.3683212,64.0065769 C33.3004813,64.3927095 46.0800018,64.5120026 46.0800018,64.5120026 C46.0800018,64.5120026 56.4080662,64.4963061 63.2862745,63.9877411 C64.2462746,63.8700177 66.3413786,63.8605999 68.2106907,61.8593024 C69.6837148,60.3351771 70.1644828,56.8741097 70.1644828,56.8741097 C70.1644828,56.8741097 70.6560028,52.8102986 70.6560028,48.7449179 L70.6560028,44.9338197 C70.6560028,40.8700086 70.1644828,36.8046279 70.1644828,36.8046279 L70.1644828,36.8046279 Z" id="Youtube" fill="#FFFFFF"></path>
                    <polygon id="Path" fill="#CE1312" points="41.0050576 53.3628137 41.0035216 39.2501349 54.2837782 46.3308038"></polygon>
                </g>
            </g>
        </g>
    </g>
</svg>